<?xml version="1.0" standalone="no"?>
<!DOCTYPE svg PUBLIC "-//W3C//DTD SVG 20010904//EN"
 "http://www.w3.org/TR/2001/REC-SVG-20010904/DTD/svg10.dtd">
<svg version="1.0" xmlns="http://www.w3.org/2000/svg"
 width="260.000000pt" height="260.000000pt" viewBox="0 0 260.000000 260.000000"
 preserveAspectRatio="xMidYMid meet">
<metadata>
Created by potrace 1.11, written by Peter Selinger 2001-2013
</metadata>
<g transform="translate(0.000000,260.000000) scale(0.100000,-0.100000)"
fill="#000000" stroke="none">
<path d="M371 2260 c-122 -19 -352 -69 -363 -79 -8 -8 51 -358 167 -976 78
-412 131 -714 140 -786 4 -31 11 -62 15 -70 12 -19 127 -28 225 -18 210 22
381 98 522 232 30 29 44 36 47 26 18 -61 40 -109 56 -124 29 -27 155 -38 359
-31 179 5 184 5 230 -19 l47 -23 90 18 c167 34 299 69 413 109 62 22 115 42
117 44 14 13 -118 294 -204 437 -22 36 -71 121 -110 190 l-70 125 19 27 c11
15 92 121 181 235 223 289 340 465 321 483 -18 18 -371 139 -568 195 l-98 28
-91 -16 c-50 -9 -156 -21 -236 -27 -160 -12 -330 -36 -343 -49 -4 -4 -14 -48
-22 -97 -27 -163 -11 -160 -138 -31 -132 133 -193 169 -330 198 -113 23 -225
23 -376 -1z m1584 -82 c22 -6 58 -16 80 -23 22 -7 94 -29 160 -50 139 -43 268
-85 274 -91 7 -7 -107 -169 -243 -344 -36 -47 -112 -145 -168 -219 l-102 -133
29 -55 c16 -30 43 -80 62 -110 109 -182 304 -546 297 -553 -12 -12 -177 -53
-457 -115 -81 -18 -87 -18 -87 -5 0 5 -13 39 -30 75 -16 36 -30 69 -30 73 0 4
-14 34 -30 67 l-29 60 0 -85 c-1 -47 -4 -102 -7 -123 l-7 -37 -111 0 c-61 0
-162 3 -224 7 l-113 6 6 231 6 231 -24 -61 c-92 -240 -242 -398 -444 -469 -56
-19 -220 -48 -327 -58 -23 -2 -30 22 -72 248 -14 77 -36 199 -50 270 -94 503
-214 1176 -214 1196 0 4 26 12 58 18 31 5 100 20 152 31 128 27 298 36 397 21
222 -36 423 -240 534 -541 13 -36 24 -58 25 -50 2 8 8 129 15 267 7 159 16
256 23 261 14 11 268 37 366 37 l75 0 5 -125 5 -125 17 45 c9 25 29 81 44 125
15 44 31 90 35 103 9 24 8 24 104 0z"/>
<path d="M445 2099 c-61 -7 -246 -39 -252 -44 -2 -1 4 -37 12 -81 8 -43 26
-140 39 -214 14 -74 36 -198 50 -275 14 -77 35 -192 45 -255 11 -63 27 -146
35 -185 8 -38 31 -160 51 -270 43 -236 59 -301 72 -298 204 42 281 67 367 117
165 97 301 357 328 626 30 312 -65 588 -264 765 -125 110 -253 141 -483 114z
m349 -464 c84 -49 141 -139 156 -248 31 -214 -78 -365 -282 -393 l-43 -6 -18
93 c-10 52 -27 146 -37 209 -11 63 -26 155 -35 203 -22 121 -21 126 45 147 84
27 162 25 214 -5z"/>
<path d="M610 1561 c0 -18 6 -64 14 -104 8 -40 20 -106 26 -147 7 -41 21 -114
32 -162 19 -84 21 -87 42 -76 94 48 146 139 146 255 0 61 -5 80 -32 133 -43
81 -94 119 -171 127 l-57 6 0 -32z m170 -154 c18 -41 21 -64 17 -112 -5 -63
-33 -133 -48 -118 -11 11 -60 314 -52 326 9 15 61 -44 83 -96z"/>
<path d="M1901 2082 c-5 -10 -26 -69 -46 -132 -72 -226 -107 -304 -169 -382
-16 -21 -33 -38 -38 -38 -11 0 -10 209 3 390 6 84 9 154 6 156 -2 2 -67 -4
-144 -13 l-141 -17 -7 -145 c-10 -241 -24 -517 -34 -676 -6 -82 -13 -256 -17
-386 l-7 -236 33 -6 c18 -4 81 -7 141 -7 129 0 117 -20 122 195 3 117 8 159
22 193 10 23 22 42 26 42 12 0 63 -110 149 -323 26 -65 52 -123 57 -128 5 -5
28 -4 59 5 27 8 76 20 109 26 33 6 94 21 136 32 l76 20 -57 102 c-31 55 -94
166 -139 245 -112 196 -161 292 -161 318 0 22 99 175 173 268 186 232 287 368
287 385 0 5 -19 14 -42 20 -24 6 -68 19 -98 30 -55 19 -271 80 -283 80 -4 0
-11 -8 -16 -18z"/>
</g>
</svg>
